<?xml version="1.0" encoding="UTF-8" standalone="no"?>
<svg
   fill="currentColor"
   height="12"
   viewBox="0 0 12 12"
   width="12"
   focusable="false"
   aria-hidden="true"
   style="pointer-events: none; display: inherit; width: 100%; height: 100%;"
   version="1.1"
   id="svg1"
   sodipodi:docname="YT_OAC_LOGO.svg"
   inkscape:version="1.3.2 (091e20e, 2023-11-25, custom)"
   xmlns:inkscape="http://www.inkscape.org/namespaces/inkscape"
   xmlns:sodipodi="http://sodipodi.sourceforge.net/DTD/sodipodi-0.dtd"
   xmlns="http://www.w3.org/2000/svg"
   xmlns:svg="http://www.w3.org/2000/svg">
  <defs
     id="defs1" />
  <sodipodi:namedview
     id="namedview1"
     pagecolor="#ffffff"
     bordercolor="#000000"
     borderopacity="0.25"
     inkscape:showpageshadow="2"
     inkscape:pageopacity="0.0"
     inkscape:pagecheckerboard="0"
     inkscape:deskcolor="#d1d1d1"
     showgrid="false"
     inkscape:zoom="67.75"
     inkscape:cx="6"
     inkscape:cy="6"
     inkscape:window-width="1920"
     inkscape:window-height="1009"
     inkscape:window-x="-8"
     inkscape:window-y="-8"
     inkscape:window-maximized="1"
     inkscape:current-layer="svg1" />
  <path
     id="path1"
     style="pointer-events:none;display:inherit;width:100%;height:100%"
     d="M 5.7558594 0.017578125 A 1.8 1.8 0 0 0 4.2050781 1.6660156 A 1.8 1.8 0 0 0 1.6679688 4.2050781 A 1.8 1.8 0 0 0 1.6679688 7.7949219 A 1.8 1.8 0 0 0 4.2050781 10.333984 A 1.8 1.8 0 0 0 7.7949219 10.335938 A 1.8 1.8 0 0 0 10.333984 7.7949219 A 1.8 1.8 0 0 0 10.333984 4.2050781 A 1.8 1.8 0 0 0 7.7949219 1.6660156 A 1.8 1.8 0 0 0 5.7558594 0.017578125 z M 6 3 L 8 3 L 8 4 L 7 4 L 7 7.25 A 1.75 1.75 0 1 1 6 5.6679688 L 6 3 z " />
  <g
     id="g1" />
</svg>
